<svg width="512" height="512" viewBox="0 0 512 512" fill="none" xmlns="http://www.w3.org/2000/svg">
<g clip-path="url(#clip0_113_173)">
<rect width="512" height="512" rx="65" fill="white"/>
<path d="M276.009 229.285C286.055 228.341 295.401 229.663 304.36 234.422C344.22 255.593 357.118 336.739 369.473 376.775C372.324 376.936 375.741 376.984 378.66 377.721C386.891 379.65 390.936 394.528 381.744 397.672C376.195 399.571 365.871 398.206 359.823 398.532C354.92 398.707 350.898 398.229 346.434 396.206C335.055 391.048 331.896 372.925 328.246 361.643C322.866 344.869 317.381 328.13 311.795 311.423C308.186 312.373 304.236 313.704 300.649 314.851C307.804 337.18 312.666 358.779 319.351 380.943C322.285 381.067 325.751 381.085 328.602 382.083C335.04 384.345 337.475 396.614 330.024 399.133C326.164 400.438 320.649 399.892 316.481 399.971C312.849 400.038 308.644 399.922 305.001 399.608C300.308 398.943 294.024 395.691 291.799 391.38C288.224 384.446 285.943 375.721 283.534 368.289L269.402 324.986L187.711 351.408L39.9021 399.182L-2.37522 412.823C-8.55263 414.812 -14.7345 416.815 -20.9341 418.744C-28.5315 421.107 -36.1878 420.213 -42.6919 415.402C-47.6538 411.698 -50.9248 406.169 -51.7787 400.053C-53.1199 390.715 -48.2781 379.642 -39.6077 375.822C-32.2891 372.596 -23.2987 370.136 -15.6436 367.695L42.7871 349.011C59.0233 343.83 83.9734 337.464 97.5955 328.571C107.06 322.391 115.387 314.231 121.103 304.452C123.732 299.954 125.923 295.218 129.11 291.061C133.208 285.74 138.385 281.339 144.304 278.145C148.93 275.705 157.412 272.694 162.502 270.754L193.706 258.931L240.368 241.2C250.408 237.372 265.906 230.657 276.009 229.285Z" fill="#131516"/>
<path d="M396.216 173.196C428.808 170.567 457.337 194.723 459.826 227.052C462.312 259.38 437.804 287.547 405.189 289.85C372.804 292.135 344.644 268.047 342.174 235.948C339.703 203.85 363.857 175.806 396.216 173.196Z" fill="#131516"/>
</g>
<defs>
<clipPath id="clip0_113_173">
<rect width="512" height="512" rx="65" fill="white"/>
</clipPath>
</defs>
</svg>
